<svg width="451" height="451" viewBox="0 0 451 451" fill="none" xmlns="http://www.w3.org/2000/svg">
<g clip-path="url(#clip0)">
<path d="M225.395 0C101.113 0 0 101.112 0 225.392C0 349.677 101.113 450.79 225.395 450.79C349.677 450.79 450.791 349.677 450.791 225.392C450.791 101.112 349.677 0 225.395 0ZM225.395 428.375C113.468 428.375 22.414 337.321 22.414 225.392C22.414 113.468 113.468 22.414 225.395 22.414C337.322 22.414 428.375 113.468 428.375 225.392C428.375 337.322 337.321 428.375 225.395 428.375ZM152.524 192.721C132.902 192.721 116.986 176.808 116.986 157.181C116.986 137.553 132.903 121.638 152.524 121.638C172.158 121.638 188.07 137.553 188.07 157.181C188.07 176.809 172.158 192.721 152.524 192.721ZM262.722 157.181C262.722 137.553 278.635 121.638 298.256 121.638C317.89 121.638 333.803 137.553 333.803 157.181C333.803 176.808 317.89 192.721 298.256 192.721C278.635 192.721 262.722 176.809 262.722 157.181ZM307.132 330.109L291.783 336.956C280.199 310.932 254.328 294.121 225.891 294.121C196.565 294.121 170.388 311.659 159.203 338.794L143.664 332.392C157.448 298.925 189.727 277.311 225.899 277.311C260.967 277.318 292.853 298.039 307.132 330.109ZM349.983 235.553C349.983 224.166 331.948 199.586 329.892 196.817L327.641 193.796L325.397 196.817C323.342 199.586 305.304 224.166 305.304 235.553C305.304 247.87 315.329 257.895 327.641 257.895C339.959 257.895 349.983 247.876 349.983 235.553ZM310.908 235.553C310.908 228.446 321.498 211.974 327.641 203.272C333.796 211.974 344.38 228.434 344.38 235.553C344.38 244.784 336.872 252.292 327.641 252.292C318.416 252.292 310.908 244.785 310.908 235.553ZM338.312 257.163L336.071 260.184C334.198 262.714 324.841 275.605 324.841 282.094C324.841 289.525 330.884 295.566 338.313 295.566C345.747 295.566 351.785 289.525 351.785 282.094C351.785 275.605 342.436 262.714 340.563 260.184L338.312 257.163ZM338.312 289.961C333.979 289.961 330.444 286.432 330.444 282.093C330.444 279.252 334.531 272.227 338.312 266.695C342.099 272.227 346.18 279.253 346.18 282.093C346.188 286.438 342.658 289.961 338.312 289.961Z" fill="#027DC5"/>
</g>
<defs>
<clipPath id="clip0">
<rect width="450.791" height="450.792" fill="white"/>
</clipPath>
</defs>
</svg>
