<svg width="512" height="512" viewBox="0 0 512 512" fill="none" xmlns="http://www.w3.org/2000/svg">
<g clip-path="url(#clip0)">
<path d="M326.933 414.075C352.566 390.056 370.054 355.767 369.878 320.475C368.898 223.733 234.406 173.081 154.911 240.666C121.559 269.018 107.06 312.228 125.403 359.756C126.919 363.685 131.337 365.642 135.262 364.127C139.196 362.607 141.149 358.193 139.634 354.263C107.317 270.518 194.438 208.842 271.109 228.315C279.582 230.479 353.921 251.475 354.624 320.627C354.769 351.283 338.683 382.158 316.504 402.943C312.804 406.408 310.683 411.325 310.683 416.521L310.843 453.122V453.189C310.843 455.028 309.347 456.528 307.492 456.528L277.019 456.423V414.462C277.019 410.247 273.605 406.833 269.391 406.833C265.18 406.833 261.766 410.247 261.766 414.462V456.368L225.488 456.243V414.462C225.488 410.247 222.074 406.833 217.86 406.833C213.649 406.833 210.235 410.247 210.235 414.462V456.188L181.766 456.091C179.934 456.083 178.442 454.587 178.442 452.751V415.927C178.442 402.654 169.036 403.189 153.024 379.654C150.653 376.169 145.907 375.267 142.423 377.634C138.942 380.005 138.04 384.751 140.407 388.236C146.696 397.478 154.02 405.993 162.18 413.548C162.817 414.142 163.184 415.005 163.184 415.927V452.751C163.184 462.966 171.497 471.309 181.715 471.345L307.504 471.786C317.757 471.786 326.097 463.442 326.097 453.282C326.097 453.235 326.101 453.161 326.101 453.11C325.929 413.583 325.531 415.392 326.933 414.075V414.075Z" fill="#027DC5"/>
<path d="M324.371 482.173C290.679 497.825 263.531 496.712 247.141 496.712C168.149 496.712 93.5089 436.966 90.3057 339.654C89.2315 302.881 105.989 237.354 115.892 202.147C132.571 234.264 184.543 234.725 197.805 195.128C203.114 179.284 206.875 163.022 208.985 146.8C209.528 142.624 206.582 138.796 202.407 138.253C198.231 137.71 194.403 140.655 193.856 144.831C191.872 160.081 188.332 175.37 183.34 190.284C173.329 220.178 128.493 216.342 126.067 181.573C125.294 170.515 109.751 168.882 106.595 179.413C94.4581 219.983 73.841 297.686 75.0558 339.994C75.1105 434.833 152.286 511.969 247.141 511.969C262.543 511.969 293.234 513.465 330.8 496.012C334.621 494.239 336.277 489.7 334.503 485.88C332.73 482.059 328.191 480.399 324.371 482.173V482.173Z" fill="#027DC5"/>
<path d="M437.175 276.283C437.026 266.463 424.413 262.924 418.999 270.807C412.077 280.881 403.925 290.19 394.78 298.463C392.105 300.889 388.034 298.072 389.3 294.736C412.339 234.268 411.69 171.179 364.706 126.292C357.894 119.784 346.542 125.573 347.992 134.995C349.632 145.706 349.441 157.62 346.882 168.815C345.417 175.202 336.351 174.71 335.347 168.401C322.714 88.9057 262.398 39.3786 191.485 1.21482C183.981 -2.82421 175.192 3.82809 177.051 12.1483C180.958 29.5975 195.946 65.1402 195.825 115.359C195.805 119.585 199.227 123.019 203.453 123.019C207.649 123.019 211.063 119.624 211.078 115.421C211.16 80.8979 205.075 53.8043 195.235 20.7108C272.035 64.23 310.757 110.863 320.281 170.796C323.937 193.78 356.593 194.78 361.753 172.218C363.554 164.331 364.363 156.249 364.304 148.296C396.831 188.417 393.429 241.057 375.046 289.307C368.074 307.611 390.573 322.842 405.015 309.779C410.409 304.9 415.483 299.689 420.206 294.201L414.511 354.607C410.237 399.904 386.534 441.067 349.472 467.544C346.042 469.993 345.249 474.759 347.699 478.184C350.148 481.618 354.913 482.407 358.339 479.958C398.999 450.911 425.011 405.744 429.698 356.037C437.6 272.264 437.186 276.928 437.175 276.283V276.283Z" fill="#027DC5"/>
<path d="M235.723 344.248C244.473 337.951 240.696 324.029 229.821 323.221C200.399 321.041 174.583 293.412 164.848 281.635C158.278 273.678 145.177 277.58 144.298 288.084C137.212 372.494 179.134 384.932 235.723 344.248V344.248ZM158.923 298.088C172.259 312.748 193.637 331.576 219.161 337.057C174.2 365.807 156.485 350.752 158.923 298.088Z" fill="#027DC5"/>
<path d="M342.957 288.084C342.074 277.58 328.977 273.682 322.406 281.635C312.672 293.412 286.856 321.045 257.43 323.225C246.496 324.037 242.82 337.979 251.535 344.248C305.297 382.901 350.324 375.904 342.957 288.084V288.084ZM328.328 298.088C330.777 350.967 312.887 365.701 268.09 337.057C293.617 331.576 314.992 312.748 328.328 298.088Z" fill="#027DC5"/>
</g>
<defs>
<clipPath id="clip0">
<rect width="512" height="512" fill="white"/>
</clipPath>
</defs>
</svg>
