<svg width="425" height="425" viewBox="0 0 425 425" fill="none" xmlns="http://www.w3.org/2000/svg">
<g clip-path="url(#clip0)">
<path d="M241.395 282.304C239.808 280.566 237.8 279.266 235.725 278.183C231.207 275.827 226.266 274.398 221.36 273.108V311.124C229.323 310.224 238.465 307.334 242.646 299.9C244.642 296.349 245.039 291.986 244.226 288.033C243.785 285.891 242.874 283.925 241.395 282.304Z" fill="#027DC5"/>
<path d="M242.604 299.973C242.62 299.946 242.629 299.929 242.646 299.9C242.632 299.924 242.618 299.948 242.604 299.973Z" fill="#027DC5"/>
<path d="M184.009 221.532C182.64 223.531 181.781 225.802 181.544 228.216C181.307 230.635 181.44 233.326 182.359 235.603C183.234 237.773 185.067 239.375 186.959 240.665C189.082 242.109 191.417 243.237 193.795 244.193C195.79 244.996 198.034 245.764 200.453 246.506V212.106C194.342 213.41 187.665 216.194 184.009 221.532Z" fill="#027DC5"/>
<path d="M242.804 299.619C242.754 299.708 242.7 299.801 242.647 299.899C242.709 299.785 242.758 299.701 242.804 299.619Z" fill="#027DC5"/>
<path d="M243.004 299.263C243.017 299.239 243.019 299.237 243.004 299.263V299.263Z" fill="#027DC5"/>
<path d="M234.753 92.469C267.082 65.311 288.684 4.128 275.39 1.452C257.726 -2.105 219.368 13.492 200.828 16.24C174.532 19.415 145.892 -12.275 129.816 5.389C116.745 19.751 139.187 71.981 174.298 94.735C69.546 146.219 -77.69 404.673 179.171 423.426C534.582 449.375 356.615 142.639 234.753 92.469ZM265.276 296.298C264.183 306.374 258.843 315.486 250.861 321.672C242.433 328.204 231.862 331.242 221.359 332.093V343.226C221.359 346.205 220.058 349.086 217.828 351.058C214.763 353.77 210.259 354.439 206.539 352.725C202.866 351.035 200.453 347.268 200.453 343.226V331.058C198.652 330.716 196.864 330.309 195.097 329.824C185.281 327.127 176.176 321.87 169.525 314.092C166.212 310.215 163.511 305.816 161.643 301.067C161.155 299.826 160.72 298.562 160.339 297.284C159.994 296.127 159.638 294.951 159.515 293.745C159.308 291.722 159.709 289.658 160.652 287.856C162.59 284.149 166.674 281.91 170.844 282.282C174.948 282.646 178.545 285.494 179.837 289.406C180.235 290.611 180.505 291.846 180.952 293.038C181.395 294.222 181.93 295.373 182.559 296.469C183.801 298.627 185.357 300.617 187.149 302.344C190.843 305.903 195.548 308.216 200.453 309.592V268.23C190.862 265.747 180.962 262.54 173.042 256.382C169.193 253.388 165.927 249.668 163.788 245.265C161.531 240.618 160.596 235.441 160.558 230.299C160.519 225.078 161.511 219.903 163.689 215.146C165.729 210.692 168.666 206.693 172.267 203.378C179.967 196.291 190.195 192.338 200.454 190.886V189.976V179.329C200.454 176.351 201.755 173.469 203.985 171.497C207.051 168.786 211.553 168.116 215.274 169.83C218.946 171.521 221.36 175.287 221.36 179.329V189.976V190.823C222.727 190.995 224.09 191.201 225.446 191.447C235.52 193.27 245.373 197.43 252.74 204.693C256.23 208.133 259.087 212.232 261.096 216.702C261.657 217.949 262.148 219.225 262.573 220.526C262.969 221.739 263.367 222.988 263.556 224.254C263.858 226.275 263.55 228.363 262.685 230.212C260.913 234 256.939 236.412 252.758 236.233C248.65 236.054 244.928 233.379 243.457 229.539C243.019 228.397 242.8 227.188 242.353 226.049C241.902 224.896 241.318 223.796 240.645 222.757C239.337 220.737 237.642 219.005 235.707 217.578C231.517 214.484 226.435 212.872 221.357 211.971V251.553C227.392 252.998 233.432 254.574 239.214 256.854C247.953 260.3 256.234 265.584 261.004 273.916C260.264 272.618 259.544 271.353 261.029 273.959C262.487 276.519 261.791 275.299 261.059 274.016C264.854 280.704 266.101 288.701 265.276 296.298Z" fill="#027DC5"/>
<path d="M242.493 300.169C242.432 300.278 242.379 300.374 242.337 300.447C242.373 300.384 242.427 300.289 242.493 300.169Z" fill="#027DC5"/>
</g>
<defs>
<clipPath id="clip0">
<rect width="424.98" height="424.98" fill="white"/>
</clipPath>
</defs>
</svg>
